# xmcd
#
# Track frame offsets: 
#        150
#        15087
#        26841
#        41163
#        54875
#        69848
#        80519
#        95039
#        110279
#        123987
#        137258
#        152297
#        166259
#        179883
#        192936
#        208040
#        221509
#        234998
#        249011
#        259755
#
# Disc length: 3618 seconds
#
# Revision: 4
# Processed by: cddbd v1.5.2PL0 Copyright (c) Steve Scherf et al.
# Submitted via: ExactAudioCopy v0.99pb4
#
DISCID=fd0e2014
DTITLE=Sarah Vaughan - Street Of Dreems
DYEAR=2001
DGENRE=Vocal Jazz
TTITLE0=Black Cofee
TTITLE1=As You Desire Me
TTITLE2=While You Are Gone
TTITLE3=Just Friends
TTITLE4=You Taught Me To Love Again
TTITLE5=Lonely Girl
TTITLE6=You're Mine, You
TTITLE7=The Nearness Of You
TTITLE8=I'm Crazy To Love You
TTITLE9=Don't Be Afraid
TTITLE10=I'll Know
TTITLE11=Thinking Of You
TTITLE12=This Things I Offer You
TTITLE13=After Hours
TTITLE14=Just A Moment More
TTITLE15=Time To Go
TTITLE16=Corner To Corner
TTITLE17=Street Of Dreams
TTITLE18=I Confess
TTITLE19=A Blues Serenade
EXTD=
EXTT0=
EXTT1=
EXTT2=
EXTT3=
EXTT4=
EXTT5=
EXTT6=
EXTT7=
EXTT8=
EXTT9=
EXTT10=
EXTT11=
EXTT12=
EXTT13=
EXTT14=
EXTT15=
EXTT16=
EXTT17=
EXTT18=
EXTT19=
PLAYORDER=
